<svg width="13" height="12" viewBox="0 0 13 12" fill="none" xmlns="http://www.w3.org/2000/svg">
<path d="M5.69642 0.25H0.607136C0.459815 0.25 0.339279 0.3625 0.339279 0.5V5.25C0.339279 5.3875 0.459815 5.5 0.607136 5.5H5.69642C5.84374 5.5 5.96428 5.3875 5.96428 5.25V0.5C5.96428 0.3625 5.84374 0.25 5.69642 0.25ZM4.82589 4.4375H1.47767V1.3125H4.82589V4.4375ZM12.3928 0.25H7.30356C7.15624 0.25 7.03571 0.3625 7.03571 0.5V5.25C7.03571 5.3875 7.15624 5.5 7.30356 5.5H12.3928C12.5402 5.5 12.6607 5.3875 12.6607 5.25V0.5C12.6607 0.3625 12.5402 0.25 12.3928 0.25ZM11.5223 4.4375H8.1741V1.3125H11.5223V4.4375ZM5.69642 6.5H0.607136C0.459815 6.5 0.339279 6.6125 0.339279 6.75V11.5C0.339279 11.6375 0.459815 11.75 0.607136 11.75H5.69642C5.84374 11.75 5.96428 11.6375 5.96428 11.5V6.75C5.96428 6.6125 5.84374 6.5 5.69642 6.5ZM4.82589 10.6875H1.47767V7.5625H4.82589V10.6875ZM12.3928 6.5H7.30356C7.15624 6.5 7.03571 6.6125 7.03571 6.75V11.5C7.03571 11.6375 7.15624 11.75 7.30356 11.75H12.3928C12.5402 11.75 12.6607 11.6375 12.6607 11.5V6.75C12.6607 6.6125 12.5402 6.5 12.3928 6.5ZM11.5223 10.6875H8.1741V7.5625H11.5223V10.6875Z" fill="white"/>
</svg>
