<svg width="14" height="14" viewBox="0 0 14 14" fill="none" xmlns="http://www.w3.org/2000/svg">
<path d="M4.34375 6.375H9.6875C9.69375 6.375 9.70156 6.375 9.70781 6.37344C9.77656 6.3625 9.82188 6.29844 9.81094 6.22969L9.18281 2.35469C9.17344 2.29375 9.12031 2.25 9.05937 2.25H4.97188C4.91094 2.25 4.85781 2.29375 4.84844 2.35469L4.22031 6.22969C4.21875 6.23594 4.21875 6.24375 4.21875 6.25C4.21875 6.31875 4.275 6.375 4.34375 6.375ZM5.76875 3.3125H8.26094L8.58438 5.3125H5.44375L5.76875 3.3125V3.3125ZM5.80781 7.72969C5.79844 7.66875 5.74531 7.625 5.68437 7.625H1.59687C1.53594 7.625 1.48281 7.66875 1.47344 7.72969L0.845312 11.6047C0.84375 11.6109 0.84375 11.6188 0.84375 11.625C0.84375 11.6938 0.9 11.75 0.96875 11.75H6.3125C6.31875 11.75 6.32656 11.75 6.33281 11.7484C6.40156 11.7375 6.44687 11.6734 6.43594 11.6047L5.80781 7.72969V7.72969ZM2.07031 10.6875L2.39375 8.6875H4.88594L5.20937 10.6875H2.07031ZM13.1547 11.6047L12.5266 7.72969C12.5172 7.66875 12.4641 7.625 12.4031 7.625H8.31563C8.25469 7.625 8.20156 7.66875 8.19219 7.72969L7.56406 11.6047C7.5625 11.6109 7.5625 11.6188 7.5625 11.625C7.5625 11.6938 7.61875 11.75 7.6875 11.75H13.0312C13.0375 11.75 13.0453 11.75 13.0516 11.7484C13.1187 11.7375 13.1656 11.6734 13.1547 11.6047V11.6047ZM8.78906 10.6875L9.1125 8.6875H11.6047L11.9281 10.6875H8.78906Z" fill="white"/>
</svg>
